<svg id="Layer_1" data-name="Layer 1" xmlns="http://www.w3.org/2000/svg" viewBox="0 0 64 64"><defs><style>.cls-1{fill:#d4e1f4;}.cls-2{fill:#0635c9;}.cls-3{fill:#fff;}.cls-4{fill:#1ae5be;}.cls-5{fill:none;}</style></defs><title>ai</title><path class="cls-1" d="M8.27,40.11a.21.21,0,0,1,0-.19l4.28-11.21a.66.66,0,0,0,0-.28V23.84A21.53,21.53,0,0,1,31.41,3.66a10.93,10.93,0,0,0-1.81-.1H29A21.51,21.51,0,0,0,7.31,23.86v4.59a.66.66,0,0,1,0,.28L3,39.92a.21.21,0,0,0,.12.27H8.41A.22.22,0,0,1,8.27,40.11Z" transform="translate(5.9 -0.42)"/><path class="cls-1" d="M29.49,55.46a4.5,4.5,0,0,0-1.43-2.16,4,4,0,0,0-2.44-.84H20.81a4,4,0,0,1,3.45,3,.67.67,0,0,1,0,.2l1.24,5,4,1.62C29.63,61.69,30.43,58.07,29.49,55.46Z" transform="translate(5.9 -0.42)"/><path class="cls-1" d="M17,51.3a4.11,4.11,0,0,1-1.27-3V41A.78.78,0,0,0,15,40.2H9.74a.79.79,0,0,1,.79.79h0v7.32a4.17,4.17,0,0,0,4.17,4.17h4.71A4.19,4.19,0,0,1,17,51.3Z" transform="translate(5.9 -0.42)"/><path class="cls-2" d="M3.16,41.77H6.43A2.52,2.52,0,0,1,9,44.29H9v4A5.76,5.76,0,0,0,14.7,54h6.67A2.29,2.29,0,0,1,23,54.7a2.92,2.92,0,0,1,.69,1.63,22,22,0,0,0,1.06,3.42,6.9,6.9,0,0,0,2.64,3c1.65,1.08,3.53,1.06,7.24,1a51.27,51.27,0,0,0,5.12-.4,6.65,6.65,0,0,0,3.33-1.95,6.45,6.45,0,0,0,1.38-2.54c1.12-3.76.14-8.38.54-14.25a30.5,30.5,0,0,1,2.73-11.09,1.44,1.44,0,0,1,.08-.17,21.49,21.49,0,0,0-.6-20.81A21.07,21.07,0,0,0,29.68,2h-.59A23.09,23.09,0,0,0,5.78,23.65v4.21a2.8,2.8,0,0,1-.16.9L1.54,39.36a2.25,2.25,0,0,0,1,2.3A1.4,1.4,0,0,0,3.16,41.77ZM3,39.92l4.3-11.21a.66.66,0,0,0,0-.28V23.84A21.52,21.52,0,0,1,29,3.5h.56a19.22,19.22,0,0,1,9.6,2.9,20,20,0,0,1,7,26.23v.07c-.1.24-2.44,6-2.68,8.61a132.82,132.82,0,0,0-.22,14.25,6.64,6.64,0,0,1-6.48,6.76H31.9a6.63,6.63,0,0,1-6.63-6.63h0a.6.6,0,0,0,0-.19,4,4,0,0,0-3.86-3H14.87a4.17,4.17,0,0,1-4.29-4V41a.79.79,0,0,0-.79-.79H3.21A.2.2,0,0,1,3,40H3A.28.28,0,0,1,3,39.92Z" transform="translate(5.9 -0.42)"/><path class="cls-2" d="M10.85,1.33A2,2,0,1,0,8.47,4.55,2.19,2.19,0,0,0,9,4.84,2,2,0,0,0,11.69,4a2.11,2.11,0,0,0,.22-.92A2,2,0,0,0,10.85,1.33Z" transform="translate(5.9 -0.42)"/><path class="cls-2" d="M47.34,1.33A2,2,0,1,0,48.18,4l0,0a2.31,2.31,0,0,0,.22-.93A2,2,0,0,0,47.34,1.33Z" transform="translate(5.9 -0.42)"/><path class="cls-2" d="M47.34,37.8a2,2,0,1,0,.83,2.7l0,0a2,2,0,0,0,.23-.93A2,2,0,0,0,47.34,37.8Z" transform="translate(5.9 -0.42)"/><path class="cls-2" d="M10.85,37.8A2,2,0,0,0,8.47,41a2.19,2.19,0,0,0,.57.29,2,2,0,0,0,2.65-.85,2.07,2.07,0,0,0,.22-.91A2,2,0,0,0,10.85,37.8Z" transform="translate(5.9 -0.42)"/><path class="cls-1" d="M24.17,9v.11A3,3,0,0,0,20,9.84a2.94,2.94,0,0,0-.54,1.8,3,3,0,0,0,.8,2h0a3.31,3.31,0,0,0-1.2-.22h0a3.14,3.14,0,0,0-3.15,3.14V23.9A3.16,3.16,0,0,0,19,27.05h.41a4.43,4.43,0,0,0-1,2.84A4.58,4.58,0,0,0,23,34.46h0a5.59,5.59,0,0,0,1.07-.13h0l.37.8a3.54,3.54,0,0,0,.75,1.13,4,4,0,0,0,1.06-2.7V9a4,4,0,0,0-1.07-2.7A4,4,0,0,0,24.17,9Z" transform="translate(5.9 -0.42)"/><path class="cls-1" d="M43,27.07a3.15,3.15,0,0,0,3.14-3.14v-7.3A3.14,3.14,0,0,0,43,13.49h0a2.85,2.85,0,0,0-1.19.24h0a3.06,3.06,0,0,0-2.22-5.11A2.91,2.91,0,0,0,38,9.13V9A4,4,0,0,0,37,6.56,3.85,3.85,0,0,0,36.17,9V33.56a4,4,0,0,0,.9,2.51,5.29,5.29,0,0,0,.56-.91l.35-.81h0a4.63,4.63,0,0,0,1.06.21,4.55,4.55,0,0,0,3.57-7.41H43Z" transform="translate(5.9 -0.42)"/><polygon class="cls-3" points="31.88 16.65 33.89 14.64 29.83 14.64 27.81 16.65 27.81 25.11 29.83 27.13 33.89 27.13 31.88 25.11 31.88 16.65"/><polygon class="cls-1" points="40.3 16.65 38.28 14.64 33.89 14.64 31.88 16.65 31.88 25.11 33.89 27.13 38.28 27.13 40.3 25.11 40.3 16.65"/><path class="cls-3" d="M16.87,24.93a1.87,1.87,0,0,1,1.07-1.72,1.91,1.91,0,0,0-1.67,3.44,2,2,0,0,0,1.67,0A1.89,1.89,0,0,1,16.87,24.93Z" transform="translate(5.9 -0.42)"/><path class="cls-2" d="M19,24.93A1.2,1.2,0,1,0,18,26.65,1.92,1.92,0,0,0,19,24.93Z" transform="translate(5.9 -0.42)"/><circle class="cls-2" cx="26.66" cy="11.8" r="1.76"/><circle class="cls-2" cx="22.35" cy="17.67" r="1.46"/><circle class="cls-2" cx="27.72" cy="30.81" r="1.46"/><path class="cls-3" d="M38.91,24.93A1.9,1.9,0,0,1,40,23.21a1.69,1.69,0,0,0-.82-.18,1.9,1.9,0,0,0-1.92,1.9,1.92,1.92,0,0,0,1.64,1.9,1.31,1.31,0,0,0,.28,0,2.12,2.12,0,0,0,.82-.18A1.92,1.92,0,0,1,38.91,24.93Z" transform="translate(5.9 -0.42)"/><path class="cls-2" d="M41,24.93a1.2,1.2,0,1,0-1,1.72A2,2,0,0,0,41,24.93Z" transform="translate(5.9 -0.42)"/><circle class="cls-2" cx="41.45" cy="11.76" r="1.76"/><circle class="cls-2" cx="45.76" cy="17.67" r="1.46"/><circle class="cls-2" cx="40.39" cy="30.81" r="1.46"/><path class="cls-2" d="M26.29,11.36a.78.78,0,0,0-.58.24.8.8,0,0,0,0,1.14h0a.81.81,0,0,0,1.14,0h0a.82.82,0,0,0-.58-1.4Z" transform="translate(5.9 -0.42)"/><path class="cls-2" d="M30,31.45a.83.83,0,0,0,.83-.79h0a.87.87,0,0,0-.26-.61.82.82,0,0,0-1.15,0h0a.82.82,0,0,0,0,1.16h0A.73.73,0,0,0,30,31.45Z" transform="translate(5.9 -0.42)"/><path class="cls-2" d="M31.54,24.74a.82.82,0,0,0,.82-.82V18.69a.83.83,0,0,0-1.65,0h0v5.23A.83.83,0,0,0,31.54,24.74Z" transform="translate(5.9 -0.42)"/><path class="cls-2" d="M24.5,24.69a.8.8,0,0,0,1.05-.45h0l.23-.58h2l.23.58a.81.81,0,0,0,.76.52.71.71,0,0,0,.29,0,.84.84,0,0,0,.49-1.06h0l-2-5.22A.83.83,0,0,0,26.48,18a.8.8,0,0,0-.46.46L24,23.7A.84.84,0,0,0,24.5,24.69ZM27.12,22h-.74l.37-1Z" transform="translate(5.9 -0.42)"/><path class="cls-4" d="M46.78,37a2.82,2.82,0,0,0-1.31.32l-2.14-2.15V33.87A5.4,5.4,0,0,0,44.4,28a4,4,0,0,0,3-3.85V16.83a4,4,0,0,0-3.74-3.92A3.87,3.87,0,0,0,43.28,10V8l2.15-2.15a2.78,2.78,0,1,0-1.17-1.17L41.84,7.06a.76.76,0,0,0-.25.58v.79A3.94,3.94,0,0,0,39.88,8a3.35,3.35,0,0,0-1,.13A4.76,4.76,0,0,0,29.5,9.23v5.25H24.26a.78.78,0,0,0-.58.24l-2,2a.78.78,0,0,0-.23.58v8.47a.81.81,0,0,0,.23.58l2,2a.82.82,0,0,0,.58.23h1.53v5.23a3.13,3.13,0,0,1-6,1.27,5.72,5.72,0,0,0,1.88-1.39,3.68,3.68,0,0,0,.47,0,2.3,2.3,0,1,0-2.27-2.34,2.38,2.38,0,0,0,.41,1.34,3.74,3.74,0,0,1-5.68-4.76A4.43,4.43,0,0,0,16,27.38a2.71,2.71,0,1,0-.72-3.77,2.61,2.61,0,0,0-.47,1.53,2.52,2.52,0,0,0,.17.94,2.32,2.32,0,0,1-3.58-1.94V16.83A2.32,2.32,0,0,1,16,16.2a2.27,2.27,0,1,0,1.66-.06,4,4,0,0,0-2.15-2.9A2.07,2.07,0,0,1,15,11.86a2.23,2.23,0,0,1,2.23-2.23h0a2.22,2.22,0,0,1,.87.18,3.37,3.37,0,0,0,.7,1.79,2.29,2.29,0,0,0-.13.83,2.58,2.58,0,1,0,2.59-2.57h0a2.45,2.45,0,0,0-1.35.37,1.69,1.69,0,0,1-.17-.76V9.2A3.11,3.11,0,0,1,26,9.2a.83.83,0,1,0,1.62.36c0-.06,0-.12,0-.17a.6.6,0,0,0,0-.19,4.75,4.75,0,0,0-9.37-1.07,3.44,3.44,0,0,0-1-.13,3.54,3.54,0,0,0-1.69.4V7.56A.87.87,0,0,0,15.3,7L12.84,4.56A2.79,2.79,0,0,0,7.92,1.92,2.78,2.78,0,0,0,9.06,5.69,2.84,2.84,0,0,0,10.37,6a2.88,2.88,0,0,0,1.31-.32l2.14,2.14v2a3.77,3.77,0,0,0-.53,2,3.45,3.45,0,0,0,.14,1,4,4,0,0,0-3.68,4v7.31a4,4,0,0,0,3,3.85,5.38,5.38,0,0,0,1.06,5.89v1.2l-2.14,2.15a2.88,2.88,0,0,0-1.31-.32,2.79,2.79,0,1,0,2.47,1.49L15.26,36a.91.91,0,0,0,.24-.58V35a5.52,5.52,0,0,0,2.23.48h.57l.1.23a4.77,4.77,0,0,0,9.14-1.93V28.56h5.3a.86.86,0,0,0,.58-.24l2-2a.86.86,0,0,0,.24-.58V17.28a.87.87,0,0,0-.24-.58l-2-2a.76.76,0,0,0-.58-.24H31.3V9.2a3.11,3.11,0,0,1,6.22,0v.07a.14.14,0,0,0,0,.09v.11a2,2,0,0,1-.17.76A2.56,2.56,0,1,0,36.06,15a2.58,2.58,0,0,0,2.56-2.57h0a3.34,3.34,0,0,0-.13-.83,3.53,3.53,0,0,0,.69-1.79A2.2,2.2,0,0,1,42,11.07h0a2.44,2.44,0,0,1,.15.76,2.23,2.23,0,0,1-.49,1.38,4.05,4.05,0,0,0-2.21,2.9,2.22,2.22,0,1,0,1.67,0,2.31,2.31,0,0,1,4.55.62v7.32A2.32,2.32,0,0,1,42,26a2.72,2.72,0,1,0-3.54,1.52l.08,0a2.77,2.77,0,0,0,1,.18A2.83,2.83,0,0,0,41,27.3a4.08,4.08,0,0,0,1.39.63,3.74,3.74,0,0,1-5.74,4.76,2.29,2.29,0,1,0-3.2.52h0a2.41,2.41,0,0,0,1.33.42,1.85,1.85,0,0,0,.47,0A5.21,5.21,0,0,0,37.18,35a3.13,3.13,0,0,1-6-1.28.85.85,0,0,0-.83-.83.82.82,0,0,0-.81.83,4.77,4.77,0,0,0,9.13,1.93l.1-.22A5.37,5.37,0,0,0,41.59,35v.43a.76.76,0,0,0,.25.58l2.42,2.44A2.8,2.8,0,1,0,48,37.28h0A2.65,2.65,0,0,0,46.78,37Zm0-34.84a1.16,1.16,0,1,1-1.16,1.16h0a1.15,1.15,0,0,1,1.16-1.14ZM22.18,30.79a.65.65,0,1,1-.65.65h0a.63.63,0,0,1,.64-.64Zm-1.07-19.3a.93.93,0,0,1,.92.94.93.93,0,0,1-1.86,0h0a.92.92,0,0,1,.94-.92h0Zm-12-8.23a1.13,1.13,0,1,1,1.08,1.17A1.13,1.13,0,0,1,9.14,3.34Zm7.68,15.67a.65.65,0,1,1,.64-.66v0A.66.66,0,0,1,16.82,18.93Zm-6.5,22a1.15,1.15,0,0,1-1.28-1v-.08a1.15,1.15,0,0,1,1-1.3,1.16,1.16,0,0,1,1.31,1,.62.62,0,0,0,0,.13v.06a1.16,1.16,0,0,1-1,1.18Zm7.21-16.85a1.08,1.08,0,0,1,1.09,1.07,1.1,1.1,0,0,1-1.07,1.09,1.08,1.08,0,0,1-1.09-1.07h0A1.07,1.07,0,0,1,17.53,24.08ZM34,17.65v7.79l-1.53,1.49H24.67l-1.54-1.52V17.62l1.5-1.49h7.78Zm2-4.29a.94.94,0,1,1,.93-.95v0h0a.93.93,0,0,1-.86,1h-.1Zm4.29,5.58a.65.65,0,0,1-.17-1.29h.17a.65.65,0,0,1,.56.72A.66.66,0,0,1,40.26,18.94Zm-6,12.49a.64.64,0,0,1,.72-.57A.58.58,0,1,1,34.81,32a.65.65,0,0,1-.57-.57Zm4.24-6.29a1.07,1.07,0,1,1,1.07,1.07h0A1.06,1.06,0,0,1,38.5,25.14Zm8.3,15.79A1.16,1.16,0,1,1,48,39.75a1.15,1.15,0,0,1-1.15,1.18Z" transform="translate(5.9 -0.42)"/><rect class="cls-5" width="64" height="64"/></svg>