<?xml version="1.0" encoding="utf-8"?>
<!-- Generator: Adobe Illustrator 22.0.0, SVG Export Plug-In . SVG Version: 6.00 Build 0)  -->
<svg version="1.1" id="Layer_1" xmlns="http://www.w3.org/2000/svg" xmlns:xlink="http://www.w3.org/1999/xlink" x="0px" y="0px"
	 viewBox="0 0 496 496" style="enable-background:new 0 0 496 496;" xml:space="preserve">
<style type="text/css">
	.st0{opacity:0.1;fill:url(#SVGID_1_);enable-background:new    ;}
</style>
<title>aicard</title>
<linearGradient id="SVGID_1_" gradientUnits="userSpaceOnUse" x1="248" y1="-268" x2="248" y2="228" gradientTransform="matrix(1 0 0 -1 0 228)">
	<stop  offset="0" style="stop-color:#9F2FFF"/>
	<stop  offset="1" style="stop-color:#0BB1D3"/>
</linearGradient>
<path class="st0" d="M152,400h16v16h-16V400z M312,464h16v-16h-24v16H312z M152,464h16v-16h-16V464z M320,416h8v-16h-24v16H320z
	 M112,128h16v-16h-16V128z M144,128h16v-16h-16V128z M80,128h16v-16H80V128z M480,184h16v-16h-16V184z M380,136h84l0,0v16l0,0h-76
	l0,0l-12,16l0,0h88l0,0v16l0,0h-52.7l0,0l16,16l0,0H464l0,0v16l0,0h-43.3l0,0l-32-32l0,0H320l0,0v-16c-0.1-17.2-11.1-32.4-27.5-37.8
	l0,0L277.4,168l0,0h-74.8l0,0l-15.1-37.8l0,0c-16.3,5.4-27.4,20.6-27.5,37.8v108.2c0,5.7,2.1,11.3,5.8,15.6l24.1,28.1l0,0l9.9-24.9
	l0,0l-6.9-48.2l0,0c-14.6-4.6-21.6-21.9-12.8-35.9c4.5-7,12.5-11.2,20.8-10.8c16.5,0.8,26.6,16.6,22,31.1c-2.2,6.8-7.3,12.3-13.9,15
	l0,0l6,41.8l0,0h50.1l0,0l6-41.8l0,0c-14.4-5.7-20.2-23.6-10.4-37c5-6.8,13.3-10.4,21.7-9.4c16.6,2,25.6,18.5,20,32.9
	c-2.7,6.8-8.3,12-15.2,14.1l0,0l-7,48.2l0,0l9.9,24.8l0,0l24.1-28.1c3.7-4.3,5.8-9.9,5.8-15.6V200l0,0h16l0,0v8l0,0h16.5
	c8.6,0,15.5,6.9,15.5,15.5v49c0,8.6-6.9,15.5-15.5,15.5h-18.4l0,0c-1.6,5.2-4.2,10-7.7,14.2L295.7,338c-2.3,2.6-4.8,4.9-7.7,6.8l0,0
	v16.5l0,0l82.3,15.4c25.2,4.7,45.7,29.4,45.7,55V456c0,22.1-17.9,40-40,40H103.5C81.7,496,64,478.3,64,456.5v-24.7
	c0-25.6,20.5-50.3,45.7-55l82.3-15.5l0,0v-16.5l0,0c-2.8-1.9-5.4-4.2-7.7-6.8l-30.7-35.8c-3.5-4.1-6.1-9-7.7-14.2l0,0h-18.4
	c-8.6,0-15.5-6.9-15.5-15.5v-32.9l0,0C49.6,235.4,0,183.5,0,120C0.1,53.8,53.8,0.1,120,0c63.5,0,115.4,49.6,119.6,112l0,0H280
	c30.9,0,56,25.1,56,56l0,0h20l0,0L380,136L380,136z M336,224v48h16v-48H336z M277.9,332.3L266.6,304h-53.2l-11.3,28.3
	c3.8,2.4,8.1,3.7,12.6,3.7h50.6C269.7,336,274.1,334.7,277.9,332.3z M208,351.4v12.8l24,19.2V352h-17.3
	C212.5,352,210.2,351.8,208,351.4z M105,480h15v-88.9l-7.4,1.4C95,395.8,80,413.8,80,431.8V455C80,468.8,91.2,480,105,480z
	 M367.4,392.5l-7.4-1.4V480h15c13.8,0,25-11.2,25-25v-23.2C400,413.8,385,395.8,367.4,392.5z M282.1,376.5L240,410.2l-42.1-33.7
	L136,388.1V480h208v-91.9L282.1,376.5z M272,351.4c-2.2,0.4-4.5,0.6-6.7,0.6H248v31.4l24-19.2V351.4z M272,224c0,4.4,3.6,8,8,8
	s8-3.6,8-8s-3.6-8-8-8S272,219.6,272,224z M192,224c0,4.4,3.6,8,8,8s8-3.6,8-8s-3.6-8-8-8S192,219.6,192,224z M128,16.4v32.1
	c33.7,3.8,60.1,30.5,63.6,64.2c2.8-0.4,5.6-0.7,8.4-0.7h23.6C219.6,60.9,179.1,20.4,128,16.4z M50.9,100L21.2,87.7
	c-2.6,7.9-4.2,16-4.8,24.3h32.1C48.9,107.9,49.7,103.9,50.9,100z M63.8,75.1L41.1,52.4c-5.4,6.3-10,13.2-13.8,20.6L57,85.3
	C59,81.7,61.3,78.3,63.8,75.1z M85.2,57L73,27.4c-7.4,3.7-14.3,8.4-20.6,13.8l22.7,22.7C78.3,61.3,81.7,59,85.2,57z M112,48.5V16.4
	c-8.3,0.6-16.4,2.2-24.3,4.8L100,50.9C103.9,49.7,107.9,48.9,112,48.5z M128,208h16v-20.2c-37.2,13.4-78.3-5.9-91.7-43.1
	c-1.9-5.4-3.2-10.9-3.8-16.6H16.4c4,51.1,44.5,91.6,95.6,95.6C112.2,214.9,119.3,208,128,208z M128,272h16v-48h-16V272z
	 M175.9,117.5c-1.3-31-27.5-55.1-58.5-53.8s-55.1,27.5-53.8,58.5s27.5,55.1,58.5,53.8c7.6-0.3,15.1-2.2,21.9-5.5V168
	C144,146.4,156.4,126.8,175.9,117.5z M266.6,152l9.6-24h-72.4l9.6,24H266.6z M480,152h16v-16h-16V152z M480,216h16v-16h-16V216z
	 M344.1,56.7L324.5,24H296v16h19.5l28.4,47.3L388.4,16H496V0H379.6L344.1,56.7z M392,48h104V32H392V48z M392,80h104V64H392V80z
	 M16,320H0v32h16V320z M64,320v32h16v-32H64z M128,320v32h16v-32H128z M32,328v16h16v-16H32z M112,328H96v16h16V328z M480,352h16
	v-32h-16V352z M416,320v32h16v-32H416z M352,352h16v-32h-16V352z M448,328v16h16v-16H448z M400,344v-16h-16v16H400z"/>
</svg>
