<?xml version="1.0" encoding="utf-8"?>
<!-- Generator: Adobe Illustrator 22.0.0, SVG Export Plug-In . SVG Version: 6.00 Build 0)  -->
<svg version="1.1" id="Layer_1_1_" xmlns="http://www.w3.org/2000/svg" xmlns:xlink="http://www.w3.org/1999/xlink" x="0px" y="0px"
	 viewBox="0 0 512 512" style="enable-background:new 0 0 512 512;" xml:space="preserve">
<style type="text/css">
	.st0{opacity:0.1;fill:url(#SVGID_1_);enable-background:new    ;}
</style>
<linearGradient id="SVGID_1_" gradientUnits="userSpaceOnUse" x1="-713.5" y1="94.75" x2="-713.5" y2="32.75" gradientTransform="matrix(8 0 0 8 5964 -254)">
	<stop  offset="0" style="stop-color:#9F2FFF"/>
	<stop  offset="1" style="stop-color:#0BB1D3"/>
</linearGradient>
<path class="st0" d="M184,56h-64V40h64V56z M216,40h-16v16h16V40z M104,40H88v16h16V40z M128,472h48v-16h-48V472z M504,240
	c0,79.4-64.6,144-144,144c-23,0-44.7-5.6-64-15.2V464c0,22.1-17.9,40-40,40H48c-22.1,0-40-17.9-40-40V48C8,25.9,25.9,8,48,8h208
	c22.1,0,40,17.9,40,40v63.2c19.3-9.6,41-15.2,64-15.2C439.4,96,504,160.6,504,240z M360,112c-11.1,0-21.8,1.6-32,4.2v32.6
	c0,4.3,2.1,8.3,5.7,10.7l29.4,19.6c8,5.4,12.8,14.3,12.8,24c0,7.1,5.8,12.8,12.8,12.8H403c7.1,0,12.8-5.8,12.8-12.8V194
	c0-8.8,3.9-17,10.8-22.5l25.2-20.2C428.8,127.1,396.1,112,360,112z M24,48v24h256V48c0-13.2-10.8-24-24-24H48C34.8,24,24,34.8,24,48
	z M280,464v-24H24v24c0,13.2,10.8,24,24,24h208C269.2,488,280,477.2,280,464z M280,359.6c-5.7-3.8-10.9-8.1-16-12.6v37v24H72
	c-17.6,0-32-14.4-32-32V144c0-22.1,17.9-40,40-40h184v29c5.1-4.5,10.3-8.8,16-12.6V88H24v336h256V359.6z M272,229.9v-11.8
	c0-8.4-4.5-16.3-11.7-20.6l-16.9-10.1c-7.3,16.1-11.4,33.8-11.4,52.6c0,48.4,27.1,90.7,66.8,112.4l9.3-18.5
	c2.5-5.1,3.9-10.8,3.9-16.4v-27.3c0-8.4-4.5-16.3-11.7-20.6l-8.9-5.4C279.4,257,272,243.9,272,229.9z M248,360H72
	c-8.8,0-16,7.2-16,16s7.2,16,16,16h176v-8V360z M248,344v-13.7c-15.2-18.8-25.6-41.5-29.8-66.3H72V136h160v38.3
	c4.5-8.8,9.9-17,16-24.6V120H80c-13.2,0-24,10.8-24,24v204.4c4.7-2.8,10.1-4.4,16-4.4H248z M216,152H88v96h128V152z M360,368
	c11.2,0,22-1.6,32.4-4.3l-10.5-10.5c-3.7-3.7-5.9-8.9-5.9-14.1v-7c0-11,9-20,20-20c2.2,0,4-1.8,4-4v-13.6c0-1.3-0.7-2.6-1.8-3.3
	l-14-9.3c-5.1-3.4-8.2-9.2-8.2-15.3c0-10.2,8.3-18.4,18.4-18.4h22.9l23.1,7.7c3.6,1.2,7.6-1.7,7.6-5.5V248c0-13.2,10.8-24,24-24
	h14.9c-2.8-22.5-11.5-43.2-24.5-60.5L436.8,184c-3.1,2.4-4.8,6.1-4.8,10v9.1c0,15.9-12.9,28.8-28.8,28.8h-14.3
	c-15.9,0-28.8-12.9-28.8-28.8c0-4.3-2.1-8.3-5.7-10.7L325,172.8c-8-5.4-12.8-14.3-12.8-24v-27.4c-25.5,10.3-46.8,28.7-61,51.8
	l17.6,10.6c12,7.2,19.4,20.3,19.4,34.3v11.8c0,8.4,4.5,16.3,11.7,20.6l8.9,5.4c12,7.2,19.4,20.3,19.4,34.3v27.3
	c0,8.1-1.9,16.3-5.6,23.6l-9,18.1C327.9,364.8,343.5,368,360,368z M488,240h-16c-4.4,0-8,3.6-8,8v2.2c0,12-9.8,21.8-21.8,21.8
	c-2.4,0-4.7-0.4-6.9-1.1l-20.6-6.9h-20.3c-1.3,0-2.4,1.1-2.4,2.4c0,0.8,0.4,1.6,1.1,2l14,9.3c5.6,3.7,8.9,9.9,8.9,16.6V308
	c0,11-9,20-20,20c-2.2,0-4,1.8-4,4v7c0,1.1,0.4,2.1,1.2,2.8l16.2,16.2C455.5,338.7,488,293.1,488,240z M344,232h-16v16h16V232z
	 M344,312h16v-16h-16V312z M72,296h96v-16H72V296z M184,280v16h16v-16H184z"/>
</svg>
