<?xml version="1.0" encoding="utf-8"?>
<!-- Generator: Adobe Illustrator 22.0.0, SVG Export Plug-In . SVG Version: 6.00 Build 0)  -->
<svg version="1.1" id="Layer_1" xmlns="http://www.w3.org/2000/svg" xmlns:xlink="http://www.w3.org/1999/xlink" x="0px" y="0px"
	 viewBox="0 0 496 496" style="enable-background:new 0 0 496 496;" xml:space="preserve">
<style type="text/css">
	.st0{opacity:0.1;fill:url(#SVGID_1_);enable-background:new    ;}
</style>
<title>program</title>
<linearGradient id="SVGID_1_" gradientUnits="userSpaceOnUse" x1="248" y1="766" x2="248" y2="270" gradientTransform="matrix(1 0 0 1 0 -270)">
	<stop  offset="0" style="stop-color:#9F2FFF"/>
	<stop  offset="1" style="stop-color:#0BB1D3"/>
</linearGradient>
<path class="st0" d="M480,0H16C7.2,0,0,7.2,0,16v368h120c0,8.8,7.2,16,16,16h17.9c1.6,5.2,4.2,10,7.7,14.2l30.7,35.8
	c2.3,2.6,4.8,4.9,7.7,6.8V496h96v-39.1c2.8-1.9,5.4-4.2,7.7-6.8l30.7-35.8c3.5-4.2,6.1-9,7.7-14.2H360c8.8,0,16-7.2,16-16h120V16
	C496,7.2,488.8,0,480,0z M480,16v48H16V16H480z M136,384v-48h16v48H136z M200,336c0-4.4,3.6-8,8-8s8,3.6,8,8s-3.6,8-8,8
	S200,340.4,200,336z M221.4,416h53.2l11.3,28.3c-3.8,2.4-8.1,3.7-12.6,3.7h-50.6c-4.5,0-8.8-1.3-12.6-3.7L221.4,416z M288,344
	c-4.4,0-8-3.6-8-8s3.6-8,8-8s8,3.6,8,8S292.4,344,288,344z M216,463.4c2.2,0.4,4.5,0.6,6.7,0.6H240v16h-24V463.4z M280,480h-24v-16
	h17.3c2.3,0,4.5-0.2,6.7-0.6V480z M328,388.2c0,5.7-2.1,11.3-5.8,15.6l-24.1,28.1l-9.9-24.9l6.9-48.2c12.6-4,19.5-17.4,15.6-30
	s-17.4-19.5-30-15.6c-12.6,4-19.5,17.4-15.6,30c2.2,6.8,7.3,12.3,13.9,15l-6,41.8h-50.1l-6-41.8c12.4-4.9,18.5-18.9,13.6-31.3
	c-4.9-12.4-18.9-18.5-31.3-13.6s-18.5,18.9-13.6,31.3c2.7,6.8,8.3,12,15.2,14.1l6.9,48.2l-9.9,24.8l-24.1-28.1
	c-3.7-4.3-5.8-9.9-5.8-15.6V296c0.1-17.2,11.1-32.4,27.5-37.8l15.1,37.8h74.8l15.1-37.8c16.3,5.4,27.4,20.6,27.5,37.8V388.2z
	 M284.2,256l-9.6,24h-53.2l-9.6-24H284.2z M360,384h-16v-48h16V384z M344,320v-24c0-30.9-25.1-56-56-56h-32V112h192v224h-72
	c0-8.8-7.2-16-16-16H344z M376,368v-16h88V96H240v144h-32c-30.9,0-56,25.1-56,56v24h-16c-8.8,0-16,7.2-16,16v32H16V80h464v288H376z
	 M48,48H32V32h16V48z M80,48H64V32h16V48z M112,48H96V32h16V48z M66.3,157.7L36.7,128l29.6-29.7l11.3,11.3L59.3,128l18.4,18.3
	L66.3,157.7z M178.3,146.3l18.4-18.3l-18.4-18.3l11.3-11.3l29.6,29.7l-29.6,29.7L178.3,146.3z M105.7,161.7l-11.3-11.3l52-52
	l11.3,11.3L105.7,161.7z M32,176h192v16H32V176z M32,208h192v16H32V208z M32,240h16v16H32V240z M64,240h16v16H64V240z M96,240h16v16
	H96V240z M432,144H272v-16h160V144z M344,176h-72v-16h72V176z M360,160h72v16h-72V160z M432,208H272v-16h160V208z M352,240h80v16
	h-80V240z M432,288h-80v-16h80V288z"/>
</svg>
