<?xml version="1.0" encoding="utf-8"?>
<!-- Generator: Adobe Illustrator 22.0.0, SVG Export Plug-In . SVG Version: 6.00 Build 0)  -->
<svg version="1.1" id="Layer_1_1_" xmlns="http://www.w3.org/2000/svg" xmlns:xlink="http://www.w3.org/1999/xlink" x="0px" y="0px"
	 viewBox="0 0 512 512" style="enable-background:new 0 0 512 512;" xml:space="preserve">
<style type="text/css">
	.st0{opacity:0.1;fill:url(#SVGID_1_);enable-background:new    ;}
</style>
<linearGradient id="SVGID_1_" gradientUnits="userSpaceOnUse" x1="-713.5" y1="94.75" x2="-713.5" y2="32.747" gradientTransform="matrix(8 0 0 8 5964 -254)">
	<stop  offset="0" style="stop-color:#9F2FFF"/>
	<stop  offset="1" style="stop-color:#0BB1D3"/>
</linearGradient>
<path class="st0" d="M104,408h16v16h-16V408z M72,424h16v-16H72V424z M40,424h16v-16H40V424z M504,160v256c0,22.1-17.9,40-40,40H360
	v32h32v16H120v-16h32v-32H48c-22.1,0-40-17.9-40-40V160c0-22.1,17.9-40,40-40h67.6c5.9-26.2,19.1-50.3,38.6-69.8
	C186,18.4,230,3.4,275,9.2c59.4,7.6,108.3,53.1,121.4,110.8H464C486.1,120,504,137.9,504,160z M383.1,136.8
	c-1.3-11.1-4.1-21.8-8.1-31.9c-11.2,4.8-21.8,10.6-31.8,17.2l-9.7,6.5c-7.3,4.8-15.7,7.4-24.4,7.4H308c-15.4,0-28,12.6-28,28
	c0,6,2,12,5.6,16.8l10.5,14c5.1,6.8,7.9,15.3,7.9,23.8c0,16.3-9.8,30.8-24.9,36.8c-9.2,3.7-15.1,12.4-15.1,22.2v1
	c0,0.3,0.1,0.7,0.1,1c24.6-1.5,48-10.1,67.9-24.8l-14.5-65.4l56.3,12.5C382.4,181.6,385.7,159.2,383.1,136.8z M190.3,280H88v64h336
	v-28.7l-8,8l-56-56L339.4,288l-3.6-16.1C312.1,287.7,284.6,296,256,296c-5.5,0-11.1-0.3-16.6-0.9C221.9,293.1,205.4,287.8,190.3,280
	z M428.7,288l-56-56l11.4-11.4l-45.5-10.1l10.1,45.5l11.4-11.4l56,56L428.7,288z M342.9,58.3c-0.4,0.7-0.9,1.4-1.3,2l-3.4,4.8
	c-13.8,19.3-38.2,27.3-60.8,19.8c-8.5-2.8-17.7-2.6-26,0.8l-16.2,6.5c-6.4,2.5-13.1,3.8-20,3.8H203c-14.4,0-27.9-5.6-38-15.8
	c-2.8-2.8-5.5-5.9-8-9.2c-4.1,5-7.7,10.2-11,15.6l12.7,12.7c8.1,8.1,18.9,12.6,30.4,12.6c32.5,0,58.9,26.4,58.9,58.9v48
	c0,16-11.4,30-27.1,33.1c-2.2,0.4-4.4,0.7-6.6,0.7c-12.6,0-24.4-7.1-30.2-18.7L171.6,209c-2.3-4.7-3.6-9.9-3.6-15.2
	c0-9.9-8-17.9-17.9-17.9h-19.8c10.2,54.1,55.6,97,110.8,103.2c2.3,0.3,4.6,0.3,6.9,0.4c0-0.3-0.1-0.7-0.1-1v-1
	c0-16.4,9.9-31,25.1-37.1c9-3.6,14.9-12.2,14.9-22c0-5.1-1.7-10.1-4.7-14.2l-10.5-14c-5.7-7.6-8.8-16.9-8.8-26.4
	c0-24.3,19.7-44,44-44h1.1c5.5,0,10.9-1.6,15.5-4.7l9.7-6.5c10.6-7.1,22-13.2,33.8-18.4C361.5,78.5,352.9,67.6,342.9,58.3z
	 M168.1,59.1c2.6,3.5,5.2,6.9,8.1,9.8C183.4,76.1,192.9,80,203,80h12.2c4.8,0,9.6-0.9,14-2.7l16.2-6.5c11.8-4.7,25-5.1,37-1.1
	c15.8,5.3,33-0.3,42.7-13.9l3.4-4.8c0.7-0.9,1.3-1.9,2-3c-16.7-12.1-36.4-20.3-57.6-23C234.1,20.1,196.2,32.6,168.1,59.1z
	 M128.4,160h21.7c18.7,0,33.9,15.2,33.9,33.9c0,2.8,0.7,5.5,1.9,8l12.5,24.9c3.6,7.1,11.6,11,19.4,9.5c8.3-1.6,14.3-9,14.3-17.4v-48
	c0-23.7-19.2-42.9-42.9-42.9c-15.7,0-30.5-6.1-41.7-17.3l-9-9C130.7,119.9,127.2,139.7,128.4,160z M24,160v216h98.4l24,16H488V160
	c0-13.2-10.8-24-24-24h-64.9c2.6,23.8-0.6,47.7-9.4,69.5l26.2,5.8L395.3,232l56,56L440,299.3V360H72v-96h93.8
	c-28.2-22.8-47.9-55.8-52.6-93.1c-1.5-11.8-1.6-23.5-0.3-34.9H48C34.8,136,24,146.8,24,160z M488,416v-8H141.6l-24-16H24v24
	c0,13.2,10.8,24,24,24h120v48h176v-32H184v-16h280C477.2,440,488,429.2,488,416z"/>
</svg>
